<svg height="496pt" viewBox="0 0 496 496" width="496pt" xmlns="http://www.w3.org/2000/svg" xmlns:xlink="http://www.w3.org/1999/xlink"><linearGradient id="a" gradientUnits="userSpaceOnUse" x1="248" x2="248" y1="496" y2="0"><stop offset="0" stop-color="#9f2fff"/><stop offset="1" stop-color="#0bb1d3"/></linearGradient><path d="m312 268v-4h16v4c0 11.023438 8.96875 20 20 20h8c11.03125 0 20-8.976562 20-20s-8.96875-20-20-20h-8c-19.847656 0-36-16.152344-36-36 0-18.480469 14.046875-33.574219 32-35.59375v-16.40625h16v16.40625c17.953125 2.019531 32 17.113281 32 35.59375v4h-16v-4c0-11.023438-8.96875-20-20-20h-8c-11.03125 0-20 8.976562-20 20s8.96875 20 20 20h8c19.847656 0 36 16.152344 36 36 0 18.480469-14.046875 33.574219-32 35.59375v16.40625h-16v-16.40625c-17.953125-2.019531-32-17.113281-32-35.59375zm-312 204v-448c0-13.230469 10.769531-24 24-24h272c13.230469 0 24 10.769531 24 24v75.710938c10.3125-2.351563 20.992188-3.710938 32-3.710938 79.398438 0 144 64.601562 144 144s-64.601562 144-144 144c-11.007812 0-21.6875-1.359375-32-3.710938v91.710938c0 13.230469-10.769531 24-24 24h-272c-13.230469 0-24-10.769531-24-24zm344-120.40625c-14.566406-1.042969-28.34375-4.875-40.855469-10.96875l-8.007812 13.878906c14.894531 7.425782 31.390625 12 48.871093 13.089844v-16zm64.871094 2.910156-8.007813-13.878906c-12.511719 6.101562-26.289062 9.925781-40.855469 10.96875v16c17.464844-1.089844 33.96875-5.664062 48.863282-13.089844zm49.695312-43.734375-13.855468-8c-8 11.773438-18.167969 21.949219-29.941407 29.941407l8 13.855468c14.167969-9.445312 26.351563-21.628906 35.796875-35.796875zm21.027344-62.769531h-16c-1.042969 14.566406-4.875 28.34375-10.96875 40.855469l13.871094 8.015625c7.433594-14.894532 12.007812-31.398438 13.097656-48.871094zm-13.089844-64.871094-13.871094 8.015625c6.09375 12.511719 9.925782 26.289063 10.96875 40.855469h16c-1.097656-17.472656-5.671874-33.976562-13.097656-48.871094zm-51.742187-35.832031c11.773437 8 21.949219 18.167969 29.941406 29.941406l13.855469-8c-9.445313-14.175781-21.621094-26.359375-35.796875-35.796875zm-54.761719-18.890625c14.566406 1.042969 28.34375 4.875 40.855469 10.96875l8.007812-13.878906c-14.894531-7.425782-31.398437-12-48.871093-13.089844v16zm-8 15.59375c-52.9375 0-96 43.0625-96 96s43.0625 96 96 96 96-43.0625 96-96-43.0625-96-96-96zm-114.503906 39.128906c-7.425782 14.894532-12 31.398438-13.089844 48.871094h16c1.042969-14.566406 4.875-28.34375 10.96875-40.855469zm21.792968-5.890625c8-11.773437 18.167969-21.949219 29.941407-29.941406l-8-13.855469c-14.175781 9.4375-26.359375 21.621094-35.796875 35.796875zm-34.882812 70.761719c1.089844 17.472656 5.664062 33.976562 13.089844 48.863281l13.871094-8.007812c-6.09375-12.511719-9.925782-26.289063-10.96875-40.855469zm21.027344 62.769531c9.445312 14.175781 21.621094 26.359375 35.796875 35.796875l8-13.855468c-11.773438-8-21.949219-18.167969-29.941407-29.941407zm49.695312-185.273437 8.007813 13.878906c12.511719-6.101562 26.289062-9.925781 40.855469-10.96875v-16c-17.464844 1.089844-33.96875 5.664062-48.863282 13.089844zm-279.128906 346.503906c0 4.40625 3.585938 8 8 8h272c4.414062 0 8-3.59375 8-8v-96.398438c-37.585938-13.355468-68.046875-41.777343-83.9375-78.089843-9.476562 5.863281-21.070312 7.945312-31.789062 5.304687 2.527343 10.273438 6.167968 20.183594 10.878906 29.609375l5.785156 11.574219h-89.875l5.785156-11.574219c4.710938-9.425781 8.351563-19.335937 10.878906-29.609375-3.191406.785156-6.460937 1.183594-9.789062 1.183594-23.121094 0-41.9375-18.816406-41.9375-41.945312 0-11.039063 4.480469-21.847657 12.28125-29.65625l67.71875-67.710938 50.320312 50.320312c9.054688-51.457031 45.464844-93.480468 93.679688-110.609374v-80.398438c0-4.40625-3.585938-8-8-8h-272c-4.414062 0-8 3.59375-8 8zm150.886719-201.351562 15.449219 11.855468c9.71875 7.441406 22.910156 6.871094 31.960937-.464844-4.074219-13.304687-6.296875-27.414062-6.296875-42.039062 0-1.503906.183594-2.96875.222656-4.464844l-48.222656-48.222656-56.40625 56.398438c-4.824219 4.832031-7.59375 11.519531-7.59375 18.34375 0 14.304687 11.632812 25.945312 25.9375 25.945312 5.605469 0 11.039062-1.894531 15.726562-5.496094l15.449219-11.855468-2.65625 19.296874c-1.808593 13.160157-5.183593 25.910157-10.089843 38.054688h39.265624c-4.898437-12.144531-8.28125-24.894531-10.089843-38.054688zm-70.886719-238.648438h-64v16h64zm0 32h-64v16h64zm192 352h-64v16h64zm0 32h-64v16h64zm0 0" fill="url(#a)"/></svg>