<?xml version="1.0" encoding="UTF-8"?>
<svg width="496pt" height="496pt" viewBox="0 0 496 496" xmlns="http://www.w3.org/2000/svg">
<linearGradient id="a" x1="248" x2="248" y1="496" gradientUnits="userSpaceOnUse">
<stop stop-color="#9f2fff" offset="0"/>
<stop stop-color="#0bb1d3" offset="1"/>
</linearGradient>
<path d="m312 268v-4h16v4c0 11.023 8.9688 20 20 20h8c11.031 0 20-8.9766 20-20s-8.9688-20-20-20h-8c-19.848 0-36-16.152-36-36 0-18.48 14.047-33.574 32-35.594v-16.406h16v16.406c17.953 2.0195 32 17.113 32 35.594v4h-16v-4c0-11.023-8.9688-20-20-20h-8c-11.031 0-20 8.9766-20 20s8.9688 20 20 20h8c19.848 0 36 16.152 36 36 0 18.48-14.047 33.574-32 35.594v16.406h-16v-16.406c-17.953-2.0195-32-17.113-32-35.594zm-312 204v-448c0-13.23 10.77-24 24-24h272c13.23 0 24 10.77 24 24v75.711c10.312-2.3516 20.992-3.7109 32-3.7109 79.398 0 144 64.602 144 144s-64.602 144-144 144c-11.008 0-21.688-1.3594-32-3.7109v91.711c0 13.23-10.77 24-24 24h-272c-13.23 0-24-10.77-24-24zm344-120.41c-14.566-1.043-28.344-4.875-40.855-10.969l-8.0078 13.879c14.895 7.4258 31.391 12 48.871 13.09v-16zm64.871 2.9102-8.0078-13.879c-12.512 6.1016-26.289 9.9258-40.855 10.969v16c17.465-1.0898 33.969-5.6641 48.863-13.09zm49.695-43.734-13.855-8c-8 11.773-18.168 21.949-29.941 29.941l8 13.855c14.168-9.4453 26.352-21.629 35.797-35.797zm21.027-62.77h-16c-1.043 14.566-4.875 28.344-10.969 40.855l13.871 8.0156c7.4336-14.895 12.008-31.398 13.098-48.871zm-13.09-64.871-13.871 8.0156c6.0938 12.512 9.9258 26.289 10.969 40.855h16c-1.0977-17.473-5.6719-33.977-13.098-48.871zm-51.742-35.832c11.773 8 21.949 18.168 29.941 29.941l13.855-8c-9.4453-14.176-21.621-26.359-35.797-35.797zm-54.762-18.891c14.566 1.043 28.344 4.875 40.855 10.969l8.0078-13.879c-14.895-7.4258-31.398-12-48.871-13.09v16zm-8 15.594c-52.938 0-96 43.062-96 96s43.062 96 96 96 96-43.062 96-96-43.062-96-96-96zm-114.5 39.129c-7.4258 14.895-12 31.398-13.09 48.871h16c1.043-14.566 4.875-28.344 10.969-40.855zm21.793-5.8906c8-11.773 18.168-21.949 29.941-29.941l-8-13.855c-14.176 9.4375-26.359 21.621-35.797 35.797zm-34.883 70.762c1.0898 17.473 5.6641 33.977 13.09 48.863l13.871-8.0078c-6.0938-12.512-9.9258-26.289-10.969-40.855zm21.027 62.77c9.4453 14.176 21.621 26.359 35.797 35.797l8-13.855c-11.773-8-21.949-18.168-29.941-29.941zm49.695-185.27 8.0078 13.879c12.512-6.1016 26.289-9.9258 40.855-10.969v-16c-17.465 1.0898-33.969 5.6641-48.863 13.09zm-279.13 346.5c0 4.4062 3.5859 8 8 8h272c4.4141 0 8-3.5938 8-8v-96.398c-37.586-13.355-68.047-41.777-83.938-78.09-9.4766 5.8633-21.07 7.9453-31.789 5.3047 2.5273 10.273 6.168 20.184 10.879 29.609l5.7852 11.574h-89.875l5.7852-11.574c4.7109-9.4258 8.3516-19.336 10.879-29.609-3.1914 0.78516-6.4609 1.1836-9.7891 1.1836-23.121 0-41.938-18.816-41.938-41.945 0-11.039 4.4805-21.848 12.281-29.656l67.719-67.711 50.32 50.32c9.0547-51.457 45.465-93.48 93.68-110.61v-80.398c0-4.4062-3.5859-8-8-8h-272c-4.4141 0-8 3.5938-8 8zm150.89-201.35 15.449 11.855c9.7188 7.4414 22.91 6.8711 31.961-0.46484-4.0742-13.305-6.2969-27.414-6.2969-42.039 0-1.5039 0.18359-2.9688 0.22266-4.4648l-48.223-48.223-56.406 56.398c-4.8242 4.832-7.5938 11.52-7.5938 18.344 0 14.305 11.633 25.945 25.938 25.945 5.6055 0 11.039-1.8945 15.727-5.4961l15.449-11.855-2.6562 19.297c-1.8086 13.16-5.1836 25.91-10.09 38.055h39.266c-4.8984-12.145-8.2812-24.895-10.09-38.055zm-70.887-238.65h-64v16h64zm0 32h-64v16h64zm192 352h-64v16h64zm0 32h-64v16h64z" fill="url(#a)"/>
</svg>
